<?xml version="1.0" encoding="utf-8"?>
<!-- Generator: Adobe Illustrator 24.3.0, SVG Export Plug-In . SVG Version: 6.00 Build 0)  -->
<svg version="1.1" id="Layer_1" xmlns="http://www.w3.org/2000/svg" xmlns:xlink="http://www.w3.org/1999/xlink" x="0px" y="0px"
	 viewBox="0 0 216 144" style="enable-background:new 0 0 216 144;" xml:space="preserve">
<style type="text/css">
	.st0{fill:#010101;}
	.st1{fill:#FFFFFF;}
	.st2{fill:#67308F;}
</style>
<g>
	<rect x="25.9" y="4.13" class="st0" width="27.96" height="13.36"/>
	<path class="st1" d="M53.36,4.63V17H26.4V4.63H53.36 M54.36,3.63H25.4V18h28.96V3.63L54.36,3.63z"/>
</g>
<g>
	<rect x="25.9" y="33.92" class="st0" width="27.96" height="13.36"/>
	<path class="st1" d="M53.36,34.42v12.36H26.4V34.42H53.36 M54.36,33.42H25.4v14.36h28.96V33.42L54.36,33.42z"/>
</g>
<g>
	<rect x="54.72" y="26.8" class="st0" width="14.92" height="43"/>
	<path class="st1" d="M69.13,27.3v42H55.22v-42H69.13 M70.13,26.3H54.22v44h15.92V26.3L70.13,26.3z"/>
</g>
<g>
	<rect x="54.72" y="25.8" class="st0" width="14.92" height="43"/>
	<path class="st1" d="M69.13,26.3v42H55.22v-42H69.13 M70.13,25.3H54.22v44h15.92V25.3L70.13,25.3z"/>
</g>
<g>
	<rect x="54.72" y="26.21" class="st0" width="14.92" height="43"/>
	<path class="st1" d="M69.13,26.71v42H55.22v-42H69.13 M70.13,25.71H54.22v44h15.92V25.71L70.13,25.71z"/>
</g>
<g>
	<rect x="71.04" y="26.04" class="st0" width="27.96" height="13.36"/>
	<path class="st1" d="M98.51,26.54v12.36H71.54V26.54H98.51 M99.51,25.54H70.54v14.36h28.96V25.54L99.51,25.54z"/>
</g>
<g>
	<rect x="71.04" y="27.04" class="st0" width="27.96" height="13.36"/>
	<path class="st1" d="M98.51,27.54v12.36H71.54V27.54H98.51 M99.51,26.54H70.54v14.36h28.96V26.54L99.51,26.54z"/>
</g>
<g>
	<rect x="71.04" y="26.04" class="st0" width="27.96" height="13.36"/>
	<path class="st1" d="M98.51,26.54v12.36H71.54V26.54H98.51 M99.51,25.54H70.54v14.36h28.96V25.54L99.51,25.54z"/>
</g>
<g>
	<rect x="71.04" y="26.15" class="st0" width="27.96" height="13.61"/>
	<path class="st1" d="M98.51,26.65v12.61H71.54V26.65H98.51 M99.51,25.65H70.54v14.61h28.96V25.65L99.51,25.65z"/>
</g>
<g>
	<rect x="71.04" y="55.83" class="st0" width="27.96" height="13.36"/>
	<path class="st1" d="M98.51,56.33v12.36H71.54V56.33H98.51 M99.51,55.33H70.54v14.36h28.96V55.33L99.51,55.33z"/>
</g>
<g>
	<rect x="115.72" y="50.02" class="st0" width="13.24" height="42.77"/>
	<path class="st1" d="M128.46,50.52V92.3h-12.24V50.52H128.46 M129.46,49.52h-14.24V93.3h14.24V49.52L129.46,49.52z"/>
</g>
<g>
	<rect x="130.37" y="77.22" class="st0" width="30.35" height="15.58"/>
	<path class="st1" d="M160.22,77.72V92.3h-29.35V77.72H160.22 M161.22,76.72h-31.35V93.3h31.35V76.72L161.22,76.72z"/>
</g>
<g>
	<rect x="161.72" y="71.93" class="st2" width="13.39" height="22.86"/>
	<path class="st1" d="M174.61,72.43V94.3h-12.39V72.43H174.61 M175.61,71.43h-14.39V95.3h14.39V71.43L175.61,71.43z"/>
</g>
<g>
	<rect x="176.11" y="71.91" class="st2" width="27.96" height="13.36"/>
	<path class="st1" d="M203.57,72.41v12.36h-26.96V72.41H203.57 M204.57,71.41h-28.96v14.36h28.96V71.41L204.57,71.41z"/>
</g>
<g>
	<rect x="10.32" y="4.21" class="st0" width="14.92" height="43"/>
	<path class="st1" d="M24.73,4.71v42H10.82v-42H24.73 M25.73,3.71H9.82v44h15.92V3.71L25.73,3.71z"/>
</g>
<g>
	<rect x="100.32" y="26.21" class="st0" width="14.92" height="43"/>
	<path class="st1" d="M114.73,26.71v42h-13.92v-42H114.73 M115.73,25.71H99.82v44h15.92V25.71L115.73,25.71z"/>
</g>
<g>
	<rect x="191.08" y="109.27" class="st2" width="13.39" height="22.86"/>
	<path class="st1" d="M203.97,109.77v21.86h-12.39v-21.86H203.97 M204.97,108.77h-14.39v23.86h14.39V108.77L204.97,108.77z"/>
</g>
<g>
	<rect x="191.08" y="110.02" class="st2" width="13.39" height="22.86"/>
	<path class="st1" d="M203.97,110.52v21.86h-12.39v-21.86H203.97 M204.97,109.52h-14.39v23.86h14.39V109.52L204.97,109.52z"/>
</g>
<g>
	<rect x="161.32" y="96.02" class="st2" width="43.39" height="12.77"/>
	<path class="st1" d="M204.22,96.52v11.77h-42.39V96.52H204.22 M205.22,95.52h-44.39v13.77h44.39V95.52L205.22,95.52z"/>
</g>
<g>
	<rect x="160.97" y="119.02" class="st2" width="29.61" height="13.36"/>
	<path class="st1" d="M190.08,119.52v12.36h-28.61v-12.36H190.08 M191.08,118.52h-30.61v14.36h30.61V118.52L191.08,118.52z"/>
</g>
<g>
	<rect x="160.8" y="119.8" class="st2" width="29.61" height="13.36"/>
	<path class="st1" d="M189.91,120.3v12.36H161.3V120.3H189.91 M190.91,119.3H160.3v14.36h30.61V119.3L190.91,119.3z"/>
</g>
<g>
	
		<rect x="106.68" y="44.31" transform="matrix(0.7071 -0.7071 0.7071 0.7071 -9.8413 97.4077)" class="st2" width="11.94" height="32.55"/>
	<path class="st1" d="M105.37,45.56l22.31,22.31l-7.74,7.74L97.63,53.3L105.37,45.56 M105.37,44.14l-9.15,9.15l23.72,23.72
		l9.15-9.15L105.37,44.14L105.37,44.14z"/>
</g>
</svg>
